<svg width="25" height="25" viewBox="0 0 25 25" fill="none" xmlns="http://www.w3.org/2000/svg">
<path d="M23.4375 17.5781V1.17188C23.4375 0.522461 22.915 0 22.2656 0H6.25C3.66211 0 1.5625 2.09961 1.5625 4.6875V20.3125C1.5625 22.9004 3.66211 25 6.25 25H22.2656C22.915 25 23.4375 24.4775 23.4375 23.8281V23.0469C23.4375 22.6807 23.2666 22.3486 23.0029 22.1338C22.7979 21.3818 22.7979 19.2383 23.0029 18.4863C23.2666 18.2764 23.4375 17.9443 23.4375 17.5781ZM7.8125 6.54297C7.8125 6.38184 7.94434 6.25 8.10547 6.25H18.457C18.6182 6.25 18.75 6.38184 18.75 6.54297V7.51953C18.75 7.68066 18.6182 7.8125 18.457 7.8125H8.10547C7.94434 7.8125 7.8125 7.68066 7.8125 7.51953V6.54297ZM7.8125 9.66797C7.8125 9.50684 7.94434 9.375 8.10547 9.375H18.457C18.6182 9.375 18.75 9.50684 18.75 9.66797V10.6445C18.75 10.8057 18.6182 10.9375 18.457 10.9375H8.10547C7.94434 10.9375 7.8125 10.8057 7.8125 10.6445V9.66797ZM20.1855 21.875H6.25C5.38574 21.875 4.6875 21.1768 4.6875 20.3125C4.6875 19.4531 5.39062 18.75 6.25 18.75H20.1855C20.0928 19.585 20.0928 21.04 20.1855 21.875Z" fill="#17100A"/>
</svg>
