<svg width="28" height="28" viewBox="0 0 28 28" fill="none" xmlns="http://www.w3.org/2000/svg">
<path d="M4.2685 19.6584L4.33639 19.3847L4.13725 19.185C2.47831 17.5214 1.5 15.427 1.5 13.1562C1.5 7.91407 6.76981 3.5 13.5 3.5C20.2302 3.5 25.5 7.91407 25.5 13.1562C25.5 18.3984 20.2302 22.8125 13.5 22.8125C11.6868 22.8125 9.97388 22.4773 8.43189 21.8972L8.16626 21.7973L7.94429 21.9742C6.81665 22.8726 4.59164 24.2955 1.63863 24.3718C1.85125 24.127 2.22855 23.6697 2.63779 23.0737C3.24261 22.1927 3.94266 20.9722 4.2685 19.6584ZM1.46869 24.5614C1.46971 24.5603 1.4708 24.5592 1.47197 24.5579C1.47093 24.5591 1.46985 24.5603 1.46874 24.5614L1.46869 24.5614Z" stroke="#7E7872"/>
</svg>
