<svg width="25" height="25" viewBox="0 0 25 25" fill="none" xmlns="http://www.w3.org/2000/svg">
<g clip-path="url(#clip0_35_19430)">
<path d="M17.474 4.99996L21.3889 8.91489C21.5538 9.07982 21.5538 9.34892 21.3889 9.51385L11.9097 18.993L7.88194 19.4401C7.34375 19.5008 6.88802 19.0451 6.94878 18.5069L7.39583 14.4791L16.875 4.99996C17.0399 4.83503 17.309 4.83503 17.474 4.99996ZM24.5052 4.00604L22.3872 1.88798C21.7274 1.22826 20.6554 1.22826 19.9913 1.88798L18.4549 3.42444C18.2899 3.58937 18.2899 3.85847 18.4549 4.0234L22.3698 7.93833C22.5347 8.10326 22.8038 8.10326 22.9688 7.93833L24.5052 6.40187C25.1649 5.73781 25.1649 4.66576 24.5052 4.00604ZM16.6667 16.4149V20.8333H2.77778V6.9444H12.7517C12.8906 6.9444 13.0208 6.88798 13.1207 6.79249L14.8568 5.05638C15.1866 4.72652 14.9523 4.16663 14.4878 4.16663H2.08333C0.93316 4.16663 0 5.09979 0 6.24996V21.5277C0 22.6779 0.93316 23.6111 2.08333 23.6111H17.3611C18.5113 23.6111 19.4444 22.6779 19.4444 21.5277V14.6788C19.4444 14.2144 18.8845 13.9843 18.5547 14.3099L16.8186 16.046C16.7231 16.1458 16.6667 16.276 16.6667 16.4149Z" fill="#17100A"/>
</g>
<defs>
<clipPath id="clip0_35_19430">
<rect width="25" height="25" fill="white"/>
</clipPath>
</defs>
</svg>
