<svg width="25" height="25" viewBox="0 0 25 25" fill="none" xmlns="http://www.w3.org/2000/svg">
<path d="M24.5264 9.31641C24.7168 9.16504 25 9.30664 25 9.5459V19.5312C25 20.8252 23.9502 21.875 22.6562 21.875H2.34375C1.0498 21.875 0 20.8252 0 19.5312V9.55078C0 9.30664 0.27832 9.16992 0.473633 9.32129C1.56738 10.1709 3.01758 11.25 7.99805 14.8682C9.02832 15.6201 10.7666 17.2021 12.5 17.1924C14.2432 17.207 16.0156 15.5908 17.0068 14.8682C21.9873 11.25 23.4326 10.166 24.5264 9.31641ZM12.5 15.625C13.6328 15.6445 15.2637 14.1992 16.084 13.6035C22.5635 8.90137 23.0566 8.49121 24.5508 7.31934C24.834 7.09961 25 6.75781 25 6.39648V5.46875C25 4.1748 23.9502 3.125 22.6562 3.125H2.34375C1.0498 3.125 0 4.1748 0 5.46875V6.39648C0 6.75781 0.166016 7.09473 0.449219 7.31934C1.94336 8.48633 2.43652 8.90137 8.91602 13.6035C9.73633 14.1992 11.3672 15.6445 12.5 15.625Z" fill="#17100A"/>
</svg>
