<svg width="25" height="25" viewBox="0 0 25 25" fill="none" xmlns="http://www.w3.org/2000/svg">
<g clip-path="url(#clip0_57_35915)">
<path d="M13.8207 4.06895L13.821 4.06871C16.1156 1.70113 19.797 1.34797 22.2486 3.43699C25.0924 5.86416 25.2438 10.2274 22.6927 12.8601L22.6926 12.8602L13.2444 22.616C13.2444 22.616 13.2444 22.616 13.2443 22.6161C12.8305 23.0431 12.1646 23.0431 11.7508 22.6161C11.7507 22.616 11.7507 22.616 11.7507 22.616L2.30274 12.8604C-0.24382 10.2278 -0.0924785 5.86435 2.75121 3.43711C5.20309 1.34779 8.88925 1.70138 11.1787 4.06836L11.1793 4.06895L12.1412 5.06016L12.5 5.4299L12.8588 5.06016L13.8207 4.06895Z" stroke="#7E7872"/>
</g>
<defs>
<clipPath id="clip0_57_35915">
<rect width="25" height="25" fill="white"/>
</clipPath>
</defs>
</svg>
