<svg width="74" height="40" viewBox="0 0 74 40" fill="none" xmlns="http://www.w3.org/2000/svg">
<path d="M64.0191 35.1736C64.0191 34.5139 64.1406 33.8889 64.3837 33.2986C64.6267 32.7083 64.9566 32.2049 65.3733 31.7882C65.8247 31.3368 66.3455 30.9896 66.9358 30.7465C67.526 30.5035 68.151 30.382 68.8108 30.382C69.4705 30.382 70.0955 30.5035 70.6858 30.7465C71.276 30.9896 71.7795 31.3368 72.1962 31.7882C72.6476 32.2049 72.9948 32.7083 73.2379 33.2986C73.4809 33.8889 73.6024 34.5139 73.6024 35.1736C73.6024 35.8333 73.4809 36.4583 73.2379 37.0486C72.9948 37.6389 72.6476 38.1597 72.1962 38.6111C71.7795 39.0278 71.276 39.3576 70.6858 39.6007C70.0955 39.8438 69.4705 39.9653 68.8108 39.9653C68.151 39.9653 67.526 39.8438 66.9358 39.6007C66.3455 39.3576 65.8247 39.0278 65.3733 38.6111C64.9566 38.1597 64.6267 37.6389 64.3837 37.0486C64.1406 36.4583 64.0191 35.8333 64.0191 35.1736Z" fill="#17100A"/>
<path d="M0 0H12.2917L20.7812 26.5625H20.8854L29.4271 0H41.6667V11.0937V11.0937C39.0562 11.4964 36.5712 12.4867 34.3993 13.9898L33.5417 14.5833V11.0937L33.4375 10.0937L23.75 39.375H17.5521L8.22917 11.0937L8.125 10.0937V39.375H0V0Z" fill="#17100A"/>
<path d="M58.481 39.375H51.2935V36.0417H51.1894C50.8769 36.4931 50.4602 36.9618 49.9394 37.4479C49.4533 37.8993 48.863 38.316 48.1685 38.6979C47.5088 39.0799 46.7623 39.3924 45.929 39.6354C45.1303 39.8785 44.297 40 43.429 40C41.554 40 39.8526 39.6875 38.3248 39.0625C36.797 38.4028 35.4776 37.5 34.3665 36.3542C33.2901 35.1736 32.4567 33.7847 31.8665 32.1875C31.2762 30.5903 30.981 28.8368 30.981 26.9271C30.981 25.1563 31.2415 23.4722 31.7623 21.875C32.3178 20.2431 33.0817 18.8021 34.054 17.5521C35.0609 16.3021 36.2762 15.3125 37.6998 14.5833C39.1234 13.8194 40.738 13.4375 42.5435 13.4375C44.1755 13.4375 45.6859 13.6979 47.0748 14.2188C48.4984 14.7049 49.6616 15.5556 50.5644 16.7708H50.6685V0H58.481V39.375ZM49.1234 26.7188C49.1234 24.809 48.5678 23.2639 47.4567 22.0833C46.3803 20.9028 44.8526 20.3125 42.8734 20.3125C40.8942 20.3125 39.3491 20.9028 38.238 22.0833C37.1616 23.2639 36.6234 24.809 36.6234 26.7188C36.6234 28.6285 37.1616 30.1736 38.238 31.3542C39.3491 32.5347 40.8942 33.125 42.8734 33.125C44.8526 33.125 46.3803 32.5347 47.4567 31.3542C48.5678 30.1736 49.1234 28.6285 49.1234 26.7188Z" fill="#17100A"/>
</svg>
