<svg width="25" height="25" viewBox="0 0 25 25" fill="none" xmlns="http://www.w3.org/2000/svg">
<path d="M21.875 10.1562H14.8438V3.125C14.8438 2.26221 14.144 1.5625 13.2812 1.5625H11.7188C10.856 1.5625 10.1562 2.26221 10.1562 3.125V10.1562H3.125C2.26221 10.1562 1.5625 10.856 1.5625 11.7188V13.2812C1.5625 14.144 2.26221 14.8438 3.125 14.8438H10.1562V21.875C10.1562 22.7378 10.856 23.4375 11.7188 23.4375H13.2812C14.144 23.4375 14.8438 22.7378 14.8438 21.875V14.8438H21.875C22.7378 14.8438 23.4375 14.144 23.4375 13.2812V11.7188C23.4375 10.856 22.7378 10.1562 21.875 10.1562Z" fill="#17100A"/>
</svg>
