<svg width="25" height="25" viewBox="0 0 25 25" fill="none" xmlns="http://www.w3.org/2000/svg">
<g clip-path="url(#clip0_35_18399)">
<path d="M20.3076 15.0537L21.4746 11.9971C21.6699 11.4844 21.2939 10.9375 20.7422 10.9375H17.8857C18.4229 10.0147 18.7549 8.9551 18.7549 7.81252V7.79787C20.6689 7.41701 21.8799 6.86525 21.8799 6.25002C21.8799 5.60061 20.5469 5.02443 18.457 4.63869C18.0078 3.03713 17.1387 1.4258 16.4746 0.595724C16.0107 0.0146691 15.21 -0.165995 14.5459 0.166036L13.1982 0.839864C12.7588 1.05959 12.2412 1.05959 11.8018 0.839864L10.4541 0.166036C9.79004 -0.165995 8.98926 0.0146691 8.52539 0.595724C7.86621 1.4258 6.99219 3.03713 6.54297 4.63869C4.45801 5.02443 3.125 5.60061 3.125 6.25002C3.125 6.86525 4.33594 7.41701 6.25 7.79787V7.81252C6.25 8.9551 6.58203 10.0147 7.11914 10.9375H4.31152C3.75 10.9375 3.37402 11.5088 3.59375 12.0264L4.85352 14.9658C2.89551 16.1035 1.5625 18.1983 1.5625 20.625V22.8125C1.5625 24.0186 2.54395 25 3.75 25H21.25C22.4561 25 23.4375 24.0186 23.4375 22.8125V20.625C23.4375 18.2617 22.1777 16.211 20.3076 15.0537ZM10.1562 23.4375L8.125 14.0625L10.5469 15.625L11.7188 17.5781L10.1562 23.4375ZM14.8438 23.4375L13.2812 17.5781L14.4531 15.625L16.875 14.0625L14.8438 23.4375ZM16.8799 8.86233C16.6895 9.44338 16.5381 10.0635 16.0742 10.4932C15.5811 10.9473 13.7305 11.5869 12.9492 9.27248C12.8125 8.86233 12.1973 8.86233 12.0557 9.27248C11.2256 11.7237 9.32129 10.8545 8.93066 10.4932C8.4668 10.0635 8.31055 9.44338 8.125 8.86233C8.08594 8.74026 7.81738 8.58401 7.81738 8.57912V8.05178C9.19922 8.22756 10.7959 8.33498 12.5049 8.33498C14.2139 8.33498 15.8105 8.23244 17.1924 8.05178V8.57912C17.1875 8.58401 16.9189 8.73537 16.8799 8.86233Z" fill="#17100A"/>
</g>
<defs>
<clipPath id="clip0_35_18399">
<rect width="25" height="25" fill="white"/>
</clipPath>
</defs>
</svg>
